<svg width="683" height="654" viewBox="0 0 683 654" fill="none" xmlns="http://www.w3.org/2000/svg">
<path d="M235.067 3.33336C216.4 10 206.4 23.4667 187.867 66.5334C179.333 86.4 171.867 94.8 159.867 98C157.067 98.8 143.733 100.533 130.133 102C93.7334 105.867 81.6 109.733 70.1334 121.067C54.9334 136.267 52.6667 156.933 62 195.333C69.2 224.533 69.0667 235.733 61.6 246.533C59.6 249.467 50.1334 258.533 40.4 266.933C11.8667 291.333 1.60004 306.133 0.400035 324.4C-0.933298 341.6 6.93337 356 28.6667 376.667C61.3334 407.733 64.8 411.6 66.4 418.267C68.2667 425.6 67.2 435.333 62 458.267C60.1334 466.267 58 478.267 57.2 484.8C53.7334 512.133 62.8 532.4 82.9334 542.267C93.6 547.467 103.867 549.733 130.933 552.667C159.467 555.733 161.733 556.133 168.267 559.467C175.6 563.2 179.333 568.933 190.8 594.667C203.467 623.2 208.4 631.467 218 640.533C228.533 650.4 235.333 653.2 249.333 653.2C264.267 653.2 273.6 650 295.6 637.2C323.467 620.933 331.2 617.6 341.333 617.6C351.6 617.6 357.467 620 380 633.333C407.867 650 421.6 654.933 436.8 653.6C448.267 652.8 458.267 647.467 467.333 637.867C476.133 628.267 480.4 620.933 491.733 595.067C496.8 583.733 502.8 571.6 505.333 568.133C512.133 558.133 519.733 555.733 552.667 552.667C590.133 549.067 607.333 542.533 617.333 528C628.667 511.6 629.067 496.133 619.733 454.133C617.467 444.133 615.6 431.733 615.6 426.533C615.467 418 615.867 416.533 620 410.133C622.8 405.6 631.067 397.333 642.267 387.733C652 379.333 663.2 368.8 666.933 364.267C680.533 347.867 685.2 331.467 680.667 315.867C676.133 300.133 666.933 288.667 635.733 260.267C617.333 243.467 615.333 239.733 616.4 222.933C616.8 216.133 618.933 202.533 621.2 192.667C628.667 159.733 627.867 142.667 618 127.733C607.6 112.133 589.733 105.2 550.667 102C530.8 100.4 518.933 97.8667 512.267 93.7334C505.867 89.8667 500.667 81.4667 492 60.5334C481.2 34.9334 476.533 26.8 467.6 17.0667C457.867 6.6667 449.067 2.13336 436.4 1.0667C420.933 -0.133302 407.6 4.80003 376 23.3334C343.6 42.5334 339.333 42.5334 307.333 23.7334C269.067 1.20003 253.2 -3.3333 235.067 3.33336ZM262.667 38.2667C266 39.6 277.333 45.8667 288 52C334.4 78.8 349.733 78.8 395.867 51.4667C418 38.4 424.8 35.3334 432.133 35.3334C437.733 35.3334 438.933 35.8667 443.067 40.6667C445.733 43.4667 450.933 52.4 454.8 60.2667C475.733 104.267 475.867 104.4 483.867 113.067C497.867 128 510.4 132.267 550.4 136C575.467 138.4 582.667 140.133 588.267 145.6C593.067 150.133 594 157.467 591.467 170C590.267 175.467 587.6 188.667 585.333 199.333C580.667 222.267 580.267 234.267 584 246.4C588.933 262.133 596.267 270.933 630.8 302.267C644 314.267 648 320 648 327.2C648 336.267 642.667 342.667 615.067 366.933C579.067 398.4 574.933 414.667 588.667 470C594.533 493.867 594.533 501.333 588.667 508.533C584.267 513.733 574.8 516 543.867 519.333C516.667 522.267 508.533 524.133 496.933 530.4C482.267 538.133 472.933 551.733 458.667 586C446.8 614.533 442.133 620 429.867 619.067C424.4 618.533 419.867 616.8 409.067 610.667C367.467 587.067 364.4 585.6 348 583.333C331.2 580.933 317.2 585.467 287.067 603.067C264.533 616.267 256.933 619.733 250.267 619.733C241.333 619.733 234.933 611.2 224 585.333C209.6 551.067 199.333 537.067 182.533 528.8C172.133 523.733 161.467 521.467 134.533 518.8C107.6 516 99.0667 513.867 94.1334 508.4C90.4 504.267 90.4 504 91.0667 492.8C91.4667 486.533 93.7334 472.933 96.1334 462.667C99.7334 447.067 100.533 441.2 100.533 427.333C100.667 410.667 100.667 410.667 95.6 400.133C91.6 391.6 88.4 387.467 77.6 376.8C70.5334 369.733 59.8667 359.733 54 354.533C39.8667 342 35.3334 335.467 35.3334 327.467C35.3334 318.4 39.2 313.467 60.4 294.4C87.8667 270 94.8 261.2 99.4667 245.333C102.533 234.267 101.467 215.867 96 192C93.6 181.733 91.4667 168.133 91.0667 161.867C90.4 150.667 90.4 150.4 94.1334 146.267C99.0667 140.8 107.6 138.667 134.533 135.867C162.133 133.067 172.133 130.933 183.6 125.333C200 117.2 208.133 105.867 224 69.3334C231.733 51.4667 234.8 45.7334 239.867 40.1334C246 33.3334 250.667 32.9334 262.667 38.2667Z" fill="url(#paint0_linear_113_3)"/>
<path d="M448.267 235.6C446 237.333 414.267 271.2 377.867 311.067L311.733 383.467L306.8 380.533C240 341.067 231.467 336.267 226.133 335.733C219.467 335.067 215.067 337.2 210.933 343.333C206.667 349.733 207.467 358.133 212.8 363.467C217.733 368.133 304.4 419.333 310.533 420.933C320.933 423.867 320.533 424.267 397.467 340.4C436.667 297.733 469.733 261.467 471.067 259.733C482.4 245.467 462.933 225.067 448.267 235.6Z" fill="url(#paint1_linear_113_3)"/>
<defs>
<linearGradient id="paint0_linear_113_3" x1="33.5" y1="485" x2="714.5" y2="-261.5" gradientUnits="userSpaceOnUse">
<stop stop-color="#FBEC9E"/>
<stop offset="0.0416667" stop-color="#E0C167" stop-opacity="0.597796"/>
<stop offset="0.119792" stop-color="#FBEC9E" stop-opacity="0.645833"/>
<stop offset="0.192608" stop-color="#FBEC9E"/>
<stop offset="0.213542" stop-color="#B78215" stop-opacity="0"/>
<stop offset="0.395733" stop-color="#F2DE8C" stop-opacity="0.8658"/>
<stop offset="0.69538" stop-color="#C59731" stop-opacity="0.66877"/>
<stop offset="0.786458" stop-color="#B78215" stop-opacity="0.608882"/>
<stop offset="0.885417" stop-color="#B78215" stop-opacity="0.597796"/>
</linearGradient>
<linearGradient id="paint1_linear_113_3" x1="221.174" y1="372.944" x2="404.936" y2="101.314" gradientUnits="userSpaceOnUse">
<stop stop-color="#FBEC9E"/>
<stop offset="0.0416667" stop-color="#E0C167" stop-opacity="0.597796"/>
<stop offset="0.119792" stop-color="#FBEC9E" stop-opacity="0.645833"/>
<stop offset="0.192608" stop-color="#FBEC9E"/>
<stop offset="0.213542" stop-color="#B78215" stop-opacity="0"/>
<stop offset="0.395733" stop-color="#F2DE8C" stop-opacity="0.8658"/>
<stop offset="0.69538" stop-color="#C59731" stop-opacity="0.66877"/>
<stop offset="0.786458" stop-color="#B78215" stop-opacity="0.608882"/>
<stop offset="0.885417" stop-color="#B78215" stop-opacity="0.597796"/>
</linearGradient>
</defs>
</svg>
